<?xml version="1.0" encoding="UTF-8"?>
<!DOCTYPE svg PUBLIC "-//W3C//DTD SVG 1.0//EN" "http://www.w3.org/TR/2001/REC-SVG-20010904/DTD/svg10.dtd">
<!-- Creator: CorelDRAW -->
<svg xmlns="http://www.w3.org/2000/svg" xml:space="preserve" width="130mm" height="40mm" version="1.0" style="shape-rendering:geometricPrecision; text-rendering:geometricPrecision; image-rendering:optimizeQuality; fill-rule:evenodd; clip-rule:evenodd"
viewBox="0 0 13000 4000"
 xmlns:xlink="http://www.w3.org/1999/xlink"
 xmlns:xodm="http://www.corel.com/coreldraw/odm/2003">
 <defs>
  <style type="text/css">
   <![CDATA[
    .fil2 {fill:url(#id0)}
    .fil0 {fill:url(#id1)}
    .fil1 {fill:url(#id2)}
    .fil3 {fill:url(#id3);fill-rule:nonzero}
   ]]>
  </style>
  <linearGradient id="id0" gradientUnits="userSpaceOnUse" x1="2438" y1="2857.14" x2="735" y2="1376.01">
   <stop offset="0" style="stop-opacity:1; stop-color:#177DFC"/>
   <stop offset="1" style="stop-opacity:1; stop-color:#BD28DC"/>
  </linearGradient>
  <linearGradient id="id1" gradientUnits="userSpaceOnUse" x1="1382.25" y1="1787.64" x2="2064.94" y2="2115.78">
   <stop offset="0" style="stop-opacity:1; stop-color:#003399"/>
   <stop offset="0.341176" style="stop-opacity:1; stop-color:#0752AE"/>
   <stop offset="1" style="stop-opacity:1; stop-color:#0F72C3"/>
  </linearGradient>
  <linearGradient id="id2" gradientUnits="userSpaceOnUse" xlink:href="#id0" x1="2438" y1="2857.14" x2="735" y2="1376.01">
  </linearGradient>
  <linearGradient id="id3" gradientUnits="userSpaceOnUse" x1="3650.77" y1="1412.24" x2="11363.36" y2="4547.56">
   <stop offset="0" style="stop-opacity:1; stop-color:#0A84FF"/>
   <stop offset="0.54902" style="stop-opacity:1; stop-color:#6356EE"/>
   <stop offset="1" style="stop-opacity:1; stop-color:#BD28DC"/>
  </linearGradient>
 </defs>
 <g id="Camada_x0020_1">
  <metadata id="CorelCorpID_0Corel-Layer"/>
  <path class="fil0" d="M1464.65 2705.9c-10.49,-522.39 156.47,-929.89 643.5,-1158.79 0,0 -445.39,-253.67 -870.59,281.77 -312.08,578.71 227.09,877.02 227.09,877.02z"/>
  <g id="_1874121041936">
   <path class="fil1" d="M2332.5 1504.45l-189.99 296.78 1069.57 -159.63 -235.72 -1085.02 -202.56 298.89c-764.01,-548.46 -1616.8,-201.58 -2038.8,520.54 -341.88,585.02 -225.61,1252.91 112.32,1648.68 -198,-235.77 -224.99,-583.63 -121.99,-911.17 209.37,-665.73 820.33,-989.06 1367.17,-787.64 96.23,35.44 179.31,96.81 240,178.57z"/>
   <path class="fil2" d="M2009.62 2577.98c-330.9,225.95 -752.87,3.87 -757.44,-393.68 -5.74,-500.25 535.4,-808.06 855.97,-637.19 -218.32,-132.16 -591.48,-108.44 -798.68,39.59 -411.54,255.94 -633.12,906.39 -422.41,1363.16 328.52,712.13 1481.49,647.87 2041.94,-99.3 213.63,-284.81 362.93,-642.36 302.16,-1076.35l-825.62 114.23c-28.71,372.59 -219.56,569.12 -395.92,689.54z"/>
  </g>
  <path class="fil3" d="M4425.35 1842.57c-230.3,0 -442.83,85.01 -603.04,226.62 -160.74,142.06 -272.2,341.04 -303.38,570.08 -30.79,226.25 24.98,425.51 157.24,568.03 132.26,142.52 342.22,228.67 615.99,228.67 318.18,0 578.08,-158.56 717.74,-338.43 -120.24,-77.67 -241.4,-155.58 -360.72,-233.49 -46.24,56.83 -147.98,125.8 -297.82,125.8 -161.86,0 -249.73,-74.93 -273.78,-203.7 342.22,0 684.44,0 1026.66,0 70.3,-320.33 17.21,-556.79 -110.06,-711.92 -128.01,-156.04 -333.9,-231.66 -568.83,-231.66zm-313.54 650.06c51.79,-125.8 141.51,-203.7 266.37,-203.7 139.66,0 204.41,74.92 216.43,203.7 -160.93,0 -321.87,0 -482.8,0zm2316.92 -650.06c-196.09,0 -337.6,86.84 -437.49,191.79 5.55,-51.79 12.95,-103.8 20.35,-155.81 -197.01,0 -393.09,0 -589.17,0 -32.38,253.19 -64.29,506.67 -96.2,759.58 -31.91,253.02 -64.74,506.16 -97.11,759.12 197,0 394.94,0 591.94,0 16.65,-127.17 31.91,-254.51 48.1,-381.74 16.18,-127.11 31.89,-254.74 48.1,-382.19 15.23,-119.79 81.39,-209.66 212.73,-209.66 134.11,0 181.26,89.93 166.48,209.66 -15.74,127.51 -32.37,255.02 -48.09,382.19 -15.73,127.17 -30.52,254.57 -46.25,381.74 197.93,0 394.94,0 592.87,0 19.43,-158.1 38.85,-316.43 57.35,-474.54 18.5,-158.1 38.3,-316.62 57.34,-474.99 13.33,-110.86 4.63,-262.13 -61.97,-385.64 -66.59,-123.5 -193.3,-219.51 -418.98,-219.51zm1746.24 35.98c-57.34,133.81 -115.22,268.02 -172.03,401.44 -56.96,133.75 -115.62,267.63 -172.96,401.21 -26.82,-133.58 -52.76,-267.8 -79.55,-401.21 -26.85,-133.77 -53.64,-267.63 -80.46,-401.44 -206.26,0 -412.52,0 -618.77,0 66.59,253.19 135.03,506.61 202.55,759.58 67.52,252.96 136.89,506.16 205.34,759.12 192.38,0 384.76,0 578.07,0 126.71,-252.96 253.24,-505.79 379.22,-759.12 125.6,-252.6 250.65,-506.39 377.36,-759.58 -206.25,0 -412.51,0 -618.77,0zm584.55 1518.7c197.01,0 394.02,0 591.95,0 27.75,-252.96 55.49,-506.16 82.32,-759.12 26.82,-252.97 54.57,-506.39 82.31,-759.58 -197,0 -393.09,0 -588.24,0 -28.68,253.19 -55.97,506.66 -84.17,759.58 -28.22,253.01 -56.42,506.16 -84.17,759.12zm474.48 -1632.58c169.26,0 321.41,-140.64 340.37,-311.4 18.96,-170.65 -103.59,-308.64 -272.85,-308.64 -169.26,0 -319.56,137.99 -338.52,308.64 -18.96,170.76 100.82,311.4 271,311.4zm1496.52 623.01c17.58,-169.56 34.22,-339.35 51.8,-509.13 -99.89,0 -197.93,0 -296.9,0 10.17,-105.86 21.27,-211.72 32.37,-317.58 -196.08,0 -392.16,0 -587.32,0 -11.1,105.86 -23.13,211.72 -33.3,317.58 -62.89,0 -125.79,0 -187.76,0 -17.57,169.78 -36.07,339.57 -54.57,509.13 62.9,0 125.79,0 188.69,0 -13.88,123.96 -27.65,247.61 -40.7,371.43 -15.62,148.17 -1.51,315.08 77.69,445.21 78.96,129.71 227.53,222.72 480.96,222.72 146.14,0 202.56,-14.9 265.45,-29.79 18.5,-178.72 37,-357.45 55.5,-536.17 -14.8,2.97 -61.05,14.89 -117.47,14.89 -132.26,0 -174.26,-71.89 -164.63,-167.73 10.72,-106.72 21.27,-213.55 32.37,-320.56 98.97,0 197.93,0 297.82,0zm1003.54 -545.11c-230.31,0 -438.92,85.24 -594.72,226.62 -156.82,142.29 -262.99,340.92 -285.8,570.08 -22.51,226.13 41.38,425.74 178.51,568.03 137.57,142.75 351.47,228.67 626.17,228.67 316.32,0 570.67,-158.56 704.78,-338.43 -123.94,-77.67 -246.95,-155.58 -369.96,-233.49 -44.4,56.83 -143.37,125.8 -293.2,125.8 -160.94,0 -252.51,-74.93 -281.18,-203.7 342.22,0 684.44,0 1026.66,0 59.2,-320.33 -2.11,-556.11 -135.96,-711.92 -133.46,-155.36 -341.3,-231.66 -575.3,-231.66zm-289.5 650.06c44.4,-125.8 133.19,-203.7 258.05,-203.7 140.59,0 207.18,74.92 224.76,203.7 -160.94,0 -321.87,0 -482.81,0z"/>
 </g>
</svg>
